<svg width="345" height="333" viewBox="0 0 345 333" fill="none" xmlns="http://www.w3.org/2000/svg">
<path d="M187.357 324.175C185.672 324.352 183.236 322.556 184.022 321.061C198.608 293.624 196.897 281.09 192.208 274.741C179.573 257.632 140.807 278.302 110.949 259.09C100.95 252.652 88.8599 239.257 83.7653 207.84C83.74 207.714 83.74 207.587 83.74 207.473V129.242C83.74 98.4341 108.719 73.4683 139.514 73.4683H258.323C289.132 73.4683 314.097 98.4341 314.097 129.242V207.65C313.806 221.502 311.17 237.685 303.287 253.869C275.394 311.151 205.195 324.799 186.049 324.153L187.357 324.175Z" fill="white" stroke="#502E91" stroke-width="16.4749" stroke-miterlimit="10"/>
<path d="M163.96 178.578C171.806 178.578 178.167 167.588 178.167 154.031C178.167 140.473 171.806 129.483 163.96 129.483C156.114 129.483 149.754 140.473 149.754 154.031C149.754 167.588 156.114 178.578 163.96 178.578Z" fill="#502E91"/>
<path d="M233.902 177.501C241.748 177.501 248.109 166.511 248.109 152.954C248.109 139.396 241.748 128.406 233.902 128.406C226.056 128.406 219.696 139.396 219.696 152.954C219.696 166.511 226.056 177.501 233.902 177.501Z" fill="#502E91"/>
<path d="M312.12 74.33L303.021 81.8578C302.844 82.0099 302.742 82.2127 302.73 82.4154L302.223 94.252C302.197 94.7209 302.654 95.1138 303.224 95.1138H305.378C305.936 95.1138 306.379 94.7463 306.379 94.2774V83.9489C306.379 83.7334 306.481 83.518 306.671 83.3659L315.428 76.1169C315.935 75.6987 315.757 74.9764 315.086 74.7482L313.198 74.1273C312.83 74.0005 312.399 74.0766 312.12 74.3174V74.33Z" fill="#502E91"/>
<path d="M289.208 19.6842L269.488 39.4034C269.095 39.7963 268.867 40.3158 268.855 40.8608L267.765 71.8336C267.727 73.0629 268.703 74.0894 269.945 74.0894H274.595C275.799 74.0894 276.775 73.1136 276.775 71.9097V44.8781C276.775 44.2952 277.003 43.7502 277.409 43.332L296.368 24.3732C297.47 23.2706 297.09 21.3824 295.633 20.8121L291.552 19.2026C290.741 18.8858 289.828 19.0759 289.208 19.6842Z" fill="#502E91"/>
<path d="M155.533 220.158C154.278 220.437 150.831 222.211 150.539 222.211C145.686 222.097 141.833 219.651 136.726 215.723C133.152 212.973 127.728 208.905 120.542 203.962C110.936 194.369 101.343 184.775 91.7366 175.182C91.6986 181.366 91.6733 187.551 91.6353 193.723C110.733 211.959 125.244 224.835 128.957 227.547C132.417 230.069 135.877 231.653 135.877 231.653C137.245 232.286 138.525 232.768 139.932 233.262C141.795 233.909 145.28 234.2 146.75 235.024C147.751 235.594 149.297 238.686 150.907 239.903C158.549 245.669 177.926 243.35 178.167 231.057C178.382 219.905 163.745 218.333 155.533 220.158Z" fill="#502E91"/>
<path d="M299.549 28.3652C307.374 28.3652 313.717 22.0218 313.717 14.1967C313.717 6.37174 307.374 0.0283203 299.549 0.0283203C291.724 0.0283203 285.38 6.37174 285.38 14.1967C285.38 22.0218 291.724 28.3652 299.549 28.3652Z" fill="#502E91"/>
<path d="M305.784 60.4152C311.32 60.4152 315.808 55.9271 315.808 50.3908C315.808 44.8545 311.32 40.3665 305.784 40.3665C300.248 40.3665 295.76 44.8545 295.76 50.3908C295.76 55.9271 300.248 60.4152 305.784 60.4152Z" fill="#502E91"/>
<path d="M301.868 50.7837L287.915 62.3288C287.636 62.5569 287.484 62.8611 287.459 63.1906L286.686 81.3384C286.66 82.0607 287.357 82.6563 288.232 82.6563H291.527C292.376 82.6563 293.073 82.0861 293.073 81.3764V65.5351C293.073 65.1929 293.238 64.8761 293.529 64.6353L306.95 53.5211C307.736 52.8748 307.457 51.7722 306.43 51.43L303.541 50.4796C302.971 50.2895 302.324 50.4035 301.881 50.7584L301.868 50.7837Z" fill="#502E91"/>
<path d="M317.278 78.2842C320.89 78.2842 323.818 75.3565 323.818 71.745C323.818 68.1334 320.89 65.2057 317.278 65.2057C313.667 65.2057 310.739 68.1334 310.739 71.745C310.739 75.3565 313.667 78.2842 317.278 78.2842Z" fill="#502E91"/>
<path d="M326.099 221.958C336.492 221.958 344.918 201.6 344.918 176.487C344.918 151.374 336.492 131.016 326.099 131.016C315.705 131.016 307.279 151.374 307.279 176.487C307.279 201.6 315.705 221.958 326.099 221.958Z" fill="#502E91"/>
<path d="M325.389 133.792C326.238 133.45 333.538 143.918 337.441 157.376C344.88 183.039 336.047 206.193 335.046 206.079C334.209 205.977 339.203 189.693 335.058 166.032C331.751 147.086 324.464 134.172 325.376 133.805L325.389 133.792Z" fill="white"/>
<path d="M70.3446 221.958C80.7382 221.958 89.164 201.6 89.164 176.487C89.164 151.374 80.7382 131.016 70.3446 131.016C59.9509 131.016 51.5251 151.374 51.5251 176.487C51.5251 201.6 59.9509 221.958 70.3446 221.958Z" fill="#502E91"/>
<path d="M71.0543 133.792C70.2053 133.45 62.9056 143.918 59.0023 157.376C51.5632 183.039 60.3963 206.193 61.3975 206.079C62.2339 205.977 57.2408 189.693 61.3848 166.032C64.6925 147.086 71.9795 134.172 71.067 133.805L71.0543 133.792Z" fill="white"/>
<path opacity="0.35" d="M91.927 194.001C107.388 230.817 125.46 243.452 139.996 247.697C162.617 254.3 181.196 241.969 197.633 254.933C211.776 266.098 206.364 281.927 218.505 287.731C234.98 295.614 261.302 274.31 272.885 262.322C299.245 235.037 303.44 199.996 304.2 183.673C306.557 196.612 308.445 218.612 299.169 242.197C275.103 303.395 199.99 313.888 196.581 314.319C197.962 311.214 199.749 306.715 201.27 301.114C202.879 295.132 203.918 291.292 203.716 285.957C203.576 282.383 203.247 276.097 198.976 270.204C198.456 269.482 196.733 267.201 193.843 265.021C188.229 260.801 182.222 260.015 179.092 259.635C177.951 259.496 176.583 259.458 173.858 259.382C167.889 259.217 165.228 259.432 155.558 259.635C149.247 259.762 147.08 259.749 146.18 259.736C142.137 259.686 138.817 259.521 136.612 259.382C134.077 259.128 130.504 258.583 126.398 257.291C123.166 256.277 118.325 254.693 113.192 250.815C108.719 247.431 106.133 243.87 104.321 241.348C101.318 237.153 99.4674 233.224 98.3395 230.335C97.0468 227.243 95.7796 223.732 94.6643 219.816C93.8279 216.851 93.1943 214.05 92.7127 211.452C92.4466 209.995 92.1677 208.537 91.9016 207.08C91.9016 206.408 91.9143 205.382 91.927 204.115C91.927 201.909 91.9143 200.807 91.9016 199.134C91.9016 197.93 91.9016 196.181 91.9396 194.027L91.927 194.001Z" fill="#857DBA"/>
<path d="M162.034 141.396C164.197 141.396 165.95 139.643 165.95 137.48C165.95 135.317 164.197 133.564 162.034 133.564C159.871 133.564 158.118 135.317 158.118 137.48C158.118 139.643 159.871 141.396 162.034 141.396Z" fill="white"/>
<path d="M232.116 141.396C234.278 141.396 236.032 139.643 236.032 137.48C236.032 135.317 234.278 133.564 232.116 133.564C229.953 133.564 228.2 135.317 228.2 137.48C228.2 139.643 229.953 141.396 232.116 141.396Z" fill="white"/>
<path d="M101.368 261.168C80.61 267.91 55.5301 265.11 42.084 246.366C38.9284 241.969 33.7198 231.171 34.797 225.849C35.1392 224.176 39.955 222.085 41.7545 220.627C48.3825 215.241 55.5428 206.497 53.2743 201.39C52.5012 199.653 50.727 198.526 49.1429 198.247C46.1647 197.727 42.7177 200.008 40.5886 204.089C40.8294 198.703 46.0507 184.015 40.2211 180.973C38.092 179.858 35.8869 180.023 34.1887 181.759L28.9801 193.076C28.8661 192.024 26.737 172.419 20.1217 171.709C19.0065 171.595 18.1194 172.052 17.7772 172.229C13.4557 174.548 12.9614 183.952 15.6354 195.395C14.6343 195.243 14.6216 194.242 14.3174 193.52C12.5686 189.401 10.6296 179.25 4.47052 180.429C-0.231171 181.328 0.0856504 186.486 0.693955 190.326C1.47968 195.256 8.83003 216.154 11.6815 219.943C14.5456 223.745 19.0318 226.077 23.6828 226.786C27.7128 270.711 76.3138 284.994 112.191 268.658C108.351 266.453 104.613 264.108 101.368 261.181V261.168Z" fill="#502E91"/>
<path d="M216.249 201.39C220.051 200.997 223.333 203.696 223.853 207.409C225.501 219.018 212.916 225.823 202.74 225.037C194.249 224.379 181.728 215.419 184.009 205.749C185.15 200.908 193.336 204.038 196.936 204.165C204.248 204.431 209.773 202.061 216.249 201.402V201.39Z" fill="#502E91"/>
</svg>
