<?xml version="1.0" encoding="UTF-8"?>
<!-- Generator: Adobe Illustrator 27.3.1, SVG Export Plug-In . SVG Version: 6.00 Build 0)  -->
<svg xmlns="http://www.w3.org/2000/svg" xmlns:xlink="http://www.w3.org/1999/xlink" version="1.1" id="Layer_1" x="0px" y="0px" viewBox="0 0 531 508.6" style="enable-background:new 0 0 531 508.6;" xml:space="preserve">
<style type="text/css">
	.st0{fill:#004956;}
	.st1{fill:#BBF3E5;}
</style>
<path class="st0" d="M502.6,167.9L491,71.5c-3.1-26-25.2-45.5-51.3-45.5H329.2c-26.2,0-48.2,19.6-51.3,45.5l-11.6,96.4  c-1.8,14.7,2.9,29.4,12.7,40.5c9.8,11.1,23.9,17.4,38.7,17.4h133.6c14.8,0,28.9-6.3,38.7-17.4C499.7,197.3,504.4,182.6,502.6,167.9z   M470.9,191.6c-5.3,5.9-12.5,9.2-20.4,9.2H318.4c-7.9,0-15.2-3.3-20.4-9.2c-5.3-5.9-7.6-13.5-6.7-21.3l11.4-95.4  c1.6-13.7,13.3-24,27.1-24h109.3c13.8,0,25.4,10.3,27.1,24l11.4,95.4C478.5,178.1,476.2,185.7,470.9,191.6z"></path>
<path class="st0" d="M450.8,138.3c-1.8-2.8-4.6-4.7-7.9-5.4c-3.3-0.7-6.6-0.1-9.4,1.8c-33.3,21.7-65.6,21.7-99,0  c-2.8-1.8-6.1-2.4-9.4-1.7c-3.3,0.7-6,2.6-7.9,5.4c-1.8,2.8-2.4,6.1-1.7,9.4c0.7,3.3,2.6,6,5.4,7.9c20.8,13.6,42.1,20.4,63.1,20.4  c21.1,0,42.3-6.9,63.1-20.4c2.8-1.8,4.7-4.6,5.4-7.9C453.3,144.4,452.7,141.1,450.8,138.3z"></path>
<path class="st0" d="M224.2,86.3l-11.8,4.1c1.3,4.2,2.9,10.1,2.9,13.6c0,3.8-2.4,6.1-7,6.1c-4.7,0-7.4-1.1-7.4-7.3V92.1h-12.5v10.6  c0,6.2-2.8,7.3-7.7,7.3c-4.9,0-7.6-1.1-7.6-7.3V92.1h-12.6v10.5c0,6.3-3.4,7.3-10.6,7.3c-7.4,0-10-1.5-10-9.6V54.8h-13.2v46.3  c0,7.5-2.6,8.9-10,8.9h0c-5.9,0-9.3-1.2-9.3-8.6V67.2H94.7v7.1c-23.5,4.9-32,14.7-32,27c0,11.7,7.7,19.3,19.1,19.3  c8.4,0,12.7-4.3,14.6-10c1.7,10.2,7.6,16.2,19.2,16.2l0,0c8.8,0,13.8-4,15.9-10c2.6,6.8,8.4,10,17.4,10c8.2,0,13.6-3,15.7-9.1  c2.1,6.3,7.1,9.1,14.1,9.1c7.1,0,11.9-3,13.9-9.2c2.1,6.3,7.2,9.2,15.3,9.2c12.3,0,19.9-8,19.9-22.6  C227.8,98.7,226.3,91.3,224.2,86.3z M94.7,101c-2,1.6-5.8,2.8-11.3,2.8c-5.1,0-10.1-1.4-10.1-4.8c0-3.7,5.3-7.4,21.4-10L94.7,101  L94.7,101z"></path>
<path class="st0" d="M101.4,64.1c4,0,7.3-2.9,7.3-7c0-4.3-3.5-7-7.3-7c-4,0-7.4,2.8-7.4,7C94,61.4,97.6,64.1,101.4,64.1z"></path>
<path class="st0" d="M84.8,64.1c4,0,7.3-2.9,7.3-7c0-4.3-3.5-7-7.3-7c-4,0-7.4,2.8-7.4,7C77.4,61.4,81,64.1,84.8,64.1z"></path>
<path class="st0" d="M27.2,197.8l2-10.6c3.8,2.7,10.6,5.2,16.3,5.2c4.9,0,7.8-1.6,7.8-4.3c0-7.4-25.7-0.5-25.7-18.4  c0-9.3,7.7-15.5,20.2-15.5c6.7,0,12.9,1.9,17.3,4.2L63,168.7c-4.2-2.2-9.4-4.2-14.5-4.2c-4.7,0-7.6,1.8-7.6,4.3  c0,7.7,25.7,1.1,25.7,17.8c0,9.2-8.7,15.6-21.7,15.6C37.2,202.2,31,199.9,27.2,197.8z"></path>
<path class="st0" d="M109.5,155.7H123v45.3h-13.4v-7.5c-3.7,5.4-8.8,8.6-15.5,8.6c-11.4,0-22.3-8.1-22.3-23.8s10.4-24,22.3-24  c6.6,0,11.8,2.5,15.5,7.4V155.7z M109.5,178.1c-2.5-8.4-7.4-12.7-13-12.7c-6,0-10.7,4.5-10.7,12.7c0,8.1,4.8,12.8,10.8,12.8  C102.5,190.9,107.3,185.7,109.5,178.1z"></path>
<path class="st0" d="M132.8,200.9v-59.7h13.4v59.7H132.8z"></path>
<path class="st0" d="M156.1,200.9v-59.7h13.4v59.7H156.1z"></path>
<path class="st0" d="M215,155.7h13.4v45.3H215v-7.5c-3.7,5.4-8.8,8.6-15.5,8.6c-11.4,0-22.3-8.1-22.3-23.8s10.4-24,22.3-24  c6.6,0,11.8,2.5,15.5,7.4V155.7z M215,178.1c-2.5-8.4-7.4-12.7-13-12.7c-6,0-10.7,4.5-10.7,12.7c0,8.1,4.8,12.8,10.8,12.8  C208,190.9,212.8,185.7,215,178.1z"></path>
<g>
	<path class="st1" d="M503,408.3l-11.6-96.4c-3.1-26-25.2-45.5-51.3-45.5H329.7c-26.2,0-48.2,19.6-51.3,45.5l-11.6,96.4   c-1.8,14.7,2.9,29.4,12.7,40.5c9.8,11.1,23.9,17.4,38.7,17.4h133.6c14.8,0,28.9-6.3,38.7-17.4C500.2,437.7,504.8,423,503,408.3z    M471.4,432c-5.3,5.9-12.5,9.2-20.4,9.2H318.8c-7.9,0-15.2-3.3-20.4-9.2c-5.3-5.9-7.6-13.5-6.7-21.3l11.4-95.4   c1.6-13.7,13.3-24,27.1-24h109.3c13.8,0,25.4,10.3,27.1,24l11.4,95.4C479,418.5,476.6,426.1,471.4,432z"></path>
	<path class="st1" d="M451.3,378.7c-1.8-2.8-4.6-4.7-7.9-5.4c-3.3-0.7-6.6-0.1-9.4,1.8c-33.3,21.7-65.6,21.7-99,0   c-2.8-1.8-6.1-2.4-9.4-1.7c-3.3,0.7-6,2.6-7.9,5.4c-1.8,2.8-2.4,6.1-1.7,9.4c0.7,3.3,2.6,6,5.4,7.9c20.8,13.6,42.1,20.4,63.1,20.4   c21.1,0,42.3-6.9,63.1-20.4c2.8-1.8,4.7-4.6,5.4-7.9C453.7,384.8,453.1,381.5,451.3,378.7z"></path>
	<path class="st1" d="M224.7,326.7l-11.8,4.1c1.3,4.2,2.9,10.1,2.9,13.6c0,3.8-2.4,6.1-7,6.1c-4.7,0-7.4-1.1-7.4-7.3v-10.6h-12.5   v10.6c0,6.2-2.8,7.3-7.7,7.3c-4.9,0-7.6-1.1-7.6-7.3v-10.6h-12.6V343c0,6.3-3.4,7.3-10.6,7.3c-7.4,0-10-1.5-10-9.6v-45.6h-13.2   v46.3c0,7.5-2.6,8.9-10,8.9h0c-5.9,0-9.3-1.2-9.3-8.6v-34.2H95.1v7.1c-23.5,4.9-32,14.7-32,27c0,11.7,7.7,19.3,19.1,19.3   c8.4,0,12.7-4.3,14.6-10c1.7,10.2,7.6,16.2,19.2,16.2l0,0c8.8,0,13.8-4,15.9-10c2.6,6.8,8.4,10,17.4,10c8.2,0,13.6-3,15.7-9.1   c2.1,6.3,7.1,9.1,14.1,9.1c7.1,0,11.9-3,13.9-9.2c2.1,6.3,7.2,9.2,15.3,9.2c12.3,0,19.9-8,19.9-22.6   C228.2,339.1,226.7,331.7,224.7,326.7z M95.2,341.3c-2,1.6-5.8,2.8-11.3,2.8c-5.1,0-10.1-1.4-10.1-4.8c0-3.7,5.3-7.4,21.4-10   L95.2,341.3L95.2,341.3z"></path>
	<path class="st1" d="M101.9,304.5c4,0,7.3-2.9,7.3-7c0-4.3-3.5-7-7.3-7c-4,0-7.4,2.8-7.4,7C94.4,301.8,98.1,304.5,101.9,304.5z"></path>
	<path class="st1" d="M85.2,304.5c4,0,7.3-2.9,7.3-7c0-4.3-3.5-7-7.3-7c-4,0-7.4,2.8-7.4,7C77.8,301.8,81.5,304.5,85.2,304.5z"></path>
	<path class="st1" d="M27.6,438.2l2-10.6c3.8,2.7,10.6,5.2,16.3,5.2c4.9,0,7.8-1.6,7.8-4.3c0-7.4-25.7-0.5-25.7-18.4   c0-9.3,7.7-15.5,20.2-15.5c6.7,0,12.9,1.9,17.3,4.2L63.4,409c-4.2-2.2-9.4-4.2-14.5-4.2c-4.7,0-7.6,1.8-7.6,4.3   c0,7.7,25.7,1.1,25.7,17.8c0,9.2-8.7,15.6-21.7,15.6C37.6,442.6,31.4,440.3,27.6,438.2z"></path>
	<path class="st1" d="M110,396h13.4v45.3H110v-7.5c-3.7,5.4-8.8,8.6-15.5,8.6c-11.4,0-22.3-8.1-22.3-23.8c0-15.7,10.4-24,22.3-24   c6.6,0,11.8,2.5,15.5,7.4V396z M110,418.5c-2.5-8.4-7.4-12.7-13-12.7c-6,0-10.7,4.5-10.7,12.7c0,8.1,4.8,12.8,10.8,12.8   C102.9,431.3,107.8,426.1,110,418.5z"></path>
	<path class="st1" d="M133.3,441.3v-59.7h13.4v59.7H133.3z"></path>
	<path class="st1" d="M156.5,441.3v-59.7H170v59.7H156.5z"></path>
	<path class="st1" d="M215.5,396h13.4v45.3h-13.4v-7.5c-3.7,5.4-8.8,8.6-15.5,8.6c-11.4,0-22.3-8.1-22.3-23.8   c0-15.7,10.4-24,22.3-24c6.6,0,11.8,2.5,15.5,7.4V396z M215.5,418.5c-2.5-8.4-7.4-12.7-13-12.7c-6,0-10.7,4.5-10.7,12.7   c0,8.1,4.8,12.8,10.8,12.8C208.4,431.3,213.3,426.1,215.5,418.5z"></path>
</g>
</svg>
