<svg width="684" height="688" viewBox="0 0 684 688" fill="none" xmlns="http://www.w3.org/2000/svg">
<path d="M204.07 553.019C201.035 551.667 200.9 547.332 203.818 545.437C257.211 510.293 267.347 485.988 265.942 469.965C262.143 426.677 174.514 425.861 143.523 361.797C133.142 340.375 126.416 304.313 150.403 242.632C150.526 242.419 150.609 242.183 150.756 241.927L232.059 100.813C264.079 45.2365 332.664 24.7485 385.256 55.0492L588.081 171.907C640.673 202.207 657.348 271.818 625.328 327.394L543.828 468.85C528.955 493.546 507.617 520.138 477.326 541.572C370.173 617.44 237.421 567.579 204.151 553.065L204.07 553.019Z" fill="#E5E0EF"/>
<path d="M174.605 561.655C171.569 560.304 171.435 555.968 174.353 554.073C227.746 518.929 237.881 494.625 236.476 478.602C232.677 435.313 145.048 434.497 114.058 370.433C103.677 349.012 96.9502 312.949 120.938 251.269C121.061 251.056 121.143 250.819 121.29 250.564L202.593 109.449C234.614 53.8727 303.199 33.3847 355.79 63.6854L558.616 180.543C611.207 210.844 627.882 280.454 595.862 336.031L514.363 477.486C499.489 502.182 478.152 528.774 447.861 550.208C340.707 626.076 207.955 576.215 174.685 561.701L174.605 561.655Z" fill="#F9F7FE"/>
<path d="M215.552 490.829C213.234 489.797 213.131 486.487 215.359 485.04C256.134 458.201 263.873 439.641 262.801 427.405C259.9 394.347 192.981 393.724 169.315 344.801C161.387 328.442 156.25 300.903 174.568 253.8C174.662 253.637 174.725 253.457 174.838 253.261L236.926 145.498C261.378 103.056 313.754 87.4105 353.916 110.55L508.806 199.789C548.968 222.929 561.702 276.088 537.249 318.529L475.011 426.553C463.653 445.413 447.358 465.72 424.226 482.088C342.398 540.025 241.02 501.948 215.613 490.865L215.552 490.829Z" stroke="url(#paint0_linear_559_864)" stroke-miterlimit="10"/>
<ellipse cx="327.016" cy="486.347" rx="74.5426" ry="6.59033" fill="#E7E7F7"/>
<rect x="498.766" y="182.522" width="62.0786" height="64.4943" fill="#F9F7FE"/>
<rect x="420.414" y="426.398" width="62.0786" height="64.4943" fill="#F9F7FE"/>
<g clip-path="url(#clip0_559_864)">
<path style="mix-blend-mode:multiply" opacity="0.8" d="M540.436 252.285C556.828 252.285 570.116 238.997 570.116 222.605C570.116 206.213 556.828 192.925 540.436 192.925C524.045 192.925 510.756 206.213 510.756 222.605C510.756 238.997 524.045 252.285 540.436 252.285Z" fill="url(#paint1_radial_559_864)"/>
<path d="M532.616 235.405C545.777 235.405 556.446 224.736 556.446 211.575C556.446 198.414 545.777 187.745 532.616 187.745C519.455 187.745 508.786 198.414 508.786 211.575C508.786 224.736 519.455 235.405 532.616 235.405Z" fill="url(#paint2_linear_559_864)"/>
<path d="M518.956 211.015C518.956 211.015 530.876 206.125 535.016 204.395C536.596 203.705 541.976 201.505 541.976 201.505C541.976 201.505 544.456 200.545 544.246 202.885C544.176 203.845 543.626 207.225 543.076 210.875C542.246 216.045 541.356 221.695 541.356 221.695C541.356 221.695 541.216 223.285 540.046 223.555C538.876 223.835 536.946 222.595 536.596 222.315C536.316 222.105 531.426 219.005 529.636 217.495C529.156 217.085 528.606 216.255 529.706 215.285C532.186 213.015 535.146 210.185 536.946 208.395C537.776 207.565 538.596 205.635 535.156 207.985C530.266 211.365 525.436 214.535 525.436 214.535C525.436 214.535 524.336 215.225 522.266 214.605C520.196 213.985 517.786 213.155 517.786 213.155C517.786 213.155 516.136 212.125 518.956 211.015Z" fill="white"/>
</g>
<g clip-path="url(#clip1_559_864)">
<path style="mix-blend-mode:multiply" opacity="0.8" d="M150.655 453.355C164.71 461.79 182.941 457.234 191.376 443.179C199.811 429.124 195.255 410.892 181.2 402.457C167.146 394.022 148.914 398.578 140.479 412.633C132.044 426.688 136.6 444.92 150.655 453.355Z" fill="url(#paint3_radial_559_864)"/>
<path d="M153.111 433.755C164.396 440.527 179.034 436.869 185.806 425.584C192.579 414.3 188.921 399.662 177.636 392.889C166.351 386.117 151.713 389.775 144.941 401.059C138.168 412.344 141.826 426.982 153.111 433.755Z" fill="url(#paint4_linear_559_864)"/>
<path d="M148.523 417.554L153.418 412.818C153.487 410.76 154.081 408.76 155.136 407.003C158.583 401.258 166.061 399.389 171.806 402.837C177.551 406.285 179.419 413.762 175.971 419.507C172.524 425.252 165.046 427.121 159.301 423.673C157.578 422.638 156.134 421.177 155.102 419.438L148.523 417.554ZM156.656 417.49L156.887 417.92C157.731 419.488 158.976 420.795 160.485 421.701C165.141 424.495 171.205 422.979 173.999 418.324C176.794 413.668 175.278 407.603 170.622 404.809C165.966 402.015 159.902 403.53 157.108 408.186C156.187 409.721 155.705 411.496 155.713 413.309L155.72 413.803L152.991 416.445L156.673 417.5L156.656 417.49Z" fill="white"/>
<path fill-rule="evenodd" clip-rule="evenodd" d="M168.56 417.03C168.285 416.515 167.898 415.898 167.268 415.8C166.79 415.723 166.176 416.182 165.742 416.342C165.516 416.428 165.351 416.352 165.2 416.157C164.092 414.699 163.559 413.061 163.564 411.245C163.551 410.957 163.674 410.809 163.955 410.71C164.365 410.571 164.87 410.43 165.161 410.08C165.461 409.736 165.549 409.182 165.592 408.741C165.648 408.18 165.801 407.421 165.513 406.909C165.249 406.436 164.64 406.246 164.105 406.321C163.184 406.456 162.411 407.065 161.946 407.859C161.812 408.082 161.704 408.321 161.635 408.571C161.455 409.163 161.393 409.79 161.395 410.409C161.395 410.876 161.404 411.347 161.453 411.809C161.601 413.332 162.019 414.831 162.717 416.194C163.068 416.872 163.497 417.537 163.999 418.118C164.563 418.772 165.045 419.388 165.887 419.695C166.769 420.014 167.842 419.993 168.618 419.421C168.846 419.254 169.043 419.023 169.136 418.752C169.323 418.188 168.837 417.5 168.578 417.018L168.56 417.03Z" fill="white"/>
<g clip-path="url(#clip2_559_864)">
<path style="mix-blend-mode:multiply" opacity="0.8" d="M446.281 497.684C461.818 502.909 478.648 494.549 483.873 479.013C489.098 463.476 480.738 446.645 465.202 441.42C449.665 436.196 432.834 444.555 427.609 460.092C422.385 475.629 430.744 492.459 446.281 497.684Z" fill="url(#paint5_radial_559_864)"/>
<path d="M444.714 476.837C457.188 481.032 470.702 474.32 474.897 461.846C479.092 449.371 472.38 435.858 459.905 431.663C447.431 427.468 433.917 434.18 429.723 446.655C425.528 459.129 432.239 472.642 444.714 476.837Z" fill="url(#paint6_linear_559_864)"/>
<path d="M449.973 469.48L454.206 456.893L458.405 458.305L460.951 453.369L455.956 451.689L457.094 448.305C457.572 446.884 458.742 445.726 460.979 446.478L463.254 447.243L464.746 442.807C464.746 442.807 462.797 441.762 460.835 441.102C456.722 439.719 453.191 441.306 451.674 445.818L450.339 449.789L445.761 448.25L444.011 453.454L448.589 454.993L444.356 467.58L449.986 469.474L449.973 469.48Z" fill="white"/>
</g>
<rect x="392.72" y="124.119" width="62.0786" height="64.4943" fill="#F9F7FE"/>
<rect x="211.74" y="136.865" width="37.9072" height="39.3823" fill="#F9F7FE"/>
<path d="M315.357 440.175C313.672 440.352 311.236 438.556 312.022 437.061C326.608 409.624 324.897 397.09 320.208 390.741C307.573 373.632 268.807 394.302 238.949 375.09C228.95 368.652 216.86 355.257 211.765 323.84C211.74 323.714 211.74 323.587 211.74 323.473V245.242C211.74 214.434 236.719 189.468 267.514 189.468H386.323C417.132 189.468 442.097 214.434 442.097 245.242V323.65C441.806 337.502 439.17 353.685 431.287 369.869C403.394 427.151 333.195 440.799 314.049 440.153L315.357 440.175Z" fill="white" stroke="#502E91" stroke-width="16.4749" stroke-miterlimit="10"/>
<path d="M291.96 294.578C299.806 294.578 306.167 283.588 306.167 270.031C306.167 256.473 299.806 245.483 291.96 245.483C284.114 245.483 277.754 256.473 277.754 270.031C277.754 283.588 284.114 294.578 291.96 294.578Z" fill="#502E91"/>
<path d="M361.902 293.501C369.748 293.501 376.109 282.511 376.109 268.954C376.109 255.396 369.748 244.406 361.902 244.406C354.056 244.406 347.696 255.396 347.696 268.954C347.696 282.511 354.056 293.501 361.902 293.501Z" fill="#502E91"/>
<path d="M440.12 190.33L431.021 197.858C430.844 198.01 430.742 198.213 430.73 198.415L430.223 210.252C430.197 210.721 430.654 211.114 431.224 211.114H433.378C433.936 211.114 434.379 210.746 434.379 210.277V199.949C434.379 199.733 434.481 199.518 434.671 199.366L443.428 192.117C443.935 191.699 443.757 190.976 443.086 190.748L441.198 190.127C440.83 190.001 440.399 190.077 440.12 190.317V190.33Z" fill="#502E91"/>
<path d="M417.208 135.684L397.488 155.403C397.095 155.796 396.867 156.316 396.855 156.861L395.765 187.834C395.727 189.063 396.703 190.089 397.945 190.089H402.595C403.799 190.089 404.775 189.114 404.775 187.91V160.878C404.775 160.295 405.003 159.75 405.409 159.332L424.368 140.373C425.47 139.271 425.09 137.382 423.633 136.812L419.552 135.203C418.741 134.886 417.828 135.076 417.208 135.684Z" fill="#502E91"/>
<path d="M283.533 336.158C282.278 336.437 278.831 338.211 278.539 338.211C273.686 338.097 269.833 335.651 264.726 331.723C261.152 328.973 255.728 324.905 248.542 319.962C238.936 310.369 229.343 300.775 219.737 291.182C219.699 297.366 219.673 303.551 219.635 309.723C238.733 327.959 253.244 340.835 256.957 343.547C260.417 346.069 263.877 347.653 263.877 347.653C265.245 348.286 266.525 348.768 267.932 349.262C269.795 349.909 273.28 350.2 274.75 351.024C275.751 351.594 277.297 354.686 278.907 355.903C286.549 361.669 305.926 359.35 306.167 347.057C306.382 335.905 291.745 334.333 283.533 336.158Z" fill="#502E91"/>
<path d="M427.549 144.365C435.374 144.365 441.717 138.022 441.717 130.197C441.717 122.372 435.374 116.028 427.549 116.028C419.724 116.028 413.38 122.372 413.38 130.197C413.38 138.022 419.724 144.365 427.549 144.365Z" fill="#502E91"/>
<path d="M433.784 176.415C439.32 176.415 443.808 171.927 443.808 166.391C443.808 160.855 439.32 156.366 433.784 156.366C428.248 156.366 423.76 160.855 423.76 166.391C423.76 171.927 428.248 176.415 433.784 176.415Z" fill="#502E91"/>
<path d="M429.868 166.784L415.915 178.329C415.636 178.557 415.484 178.861 415.459 179.191L414.686 197.338C414.66 198.061 415.357 198.656 416.232 198.656H419.527C420.376 198.656 421.073 198.086 421.073 197.376V181.535C421.073 181.193 421.238 180.876 421.529 180.635L434.95 169.521C435.736 168.875 435.457 167.772 434.43 167.43L431.541 166.48C430.971 166.289 430.324 166.404 429.881 166.758L429.868 166.784Z" fill="#502E91"/>
<path d="M445.278 194.284C448.89 194.284 451.818 191.356 451.818 187.745C451.818 184.133 448.89 181.206 445.278 181.206C441.667 181.206 438.739 184.133 438.739 187.745C438.739 191.356 441.667 194.284 445.278 194.284Z" fill="#502E91"/>
<path d="M454.099 337.958C464.492 337.958 472.918 317.6 472.918 292.487C472.918 267.374 464.492 247.016 454.099 247.016C443.705 247.016 435.279 267.374 435.279 292.487C435.279 317.6 443.705 337.958 454.099 337.958Z" fill="#502E91"/>
<path d="M453.389 249.792C454.238 249.45 461.538 259.918 465.441 273.376C472.88 299.039 464.047 322.193 463.046 322.079C462.209 321.977 467.203 305.693 463.058 282.032C459.751 263.086 452.464 250.172 453.376 249.805L453.389 249.792Z" fill="white"/>
<path d="M198.345 337.958C208.738 337.958 217.164 317.6 217.164 292.487C217.164 267.374 208.738 247.016 198.345 247.016C187.951 247.016 179.525 267.374 179.525 292.487C179.525 317.6 187.951 337.958 198.345 337.958Z" fill="#502E91"/>
<path d="M199.054 249.792C198.205 249.45 190.906 259.918 187.002 273.376C179.563 299.039 188.396 322.193 189.398 322.079C190.234 321.977 185.241 305.693 189.385 282.032C192.692 263.086 199.979 250.172 199.067 249.805L199.054 249.792Z" fill="white"/>
<path opacity="0.35" d="M219.927 310.001C235.388 346.817 253.46 359.452 267.996 363.697C290.617 370.3 309.196 357.969 325.633 370.933C339.776 382.098 334.364 397.927 346.505 403.731C362.98 411.614 389.302 390.31 400.885 378.322C427.245 351.037 431.44 315.996 432.2 299.673C434.557 312.612 436.445 334.612 427.169 358.197C403.103 419.395 327.99 429.888 324.581 430.319C325.962 427.214 327.749 422.715 329.27 417.114C330.879 411.132 331.918 407.292 331.716 401.957C331.576 398.383 331.247 392.097 326.976 386.204C326.456 385.482 324.733 383.201 321.843 381.021C316.229 376.801 310.222 376.015 307.092 375.635C305.951 375.496 304.583 375.458 301.858 375.382C295.889 375.217 293.228 375.432 283.558 375.635C277.247 375.762 275.08 375.749 274.18 375.736C270.137 375.686 266.817 375.521 264.612 375.382C262.077 375.128 258.504 374.583 254.398 373.291C251.166 372.277 246.325 370.693 241.192 366.815C236.719 363.431 234.133 359.87 232.321 357.348C229.318 353.153 227.467 349.224 226.339 346.335C225.047 343.243 223.78 339.732 222.664 335.816C221.828 332.851 221.194 330.05 220.713 327.452C220.447 325.995 220.168 324.537 219.902 323.08C219.902 322.408 219.914 321.382 219.927 320.115C219.927 317.909 219.914 316.807 219.902 315.134C219.902 313.93 219.902 312.181 219.94 310.027L219.927 310.001Z" fill="#857DBA"/>
<path d="M290.034 257.396C292.197 257.396 293.95 255.643 293.95 253.48C293.95 251.317 292.197 249.564 290.034 249.564C287.871 249.564 286.118 251.317 286.118 253.48C286.118 255.643 287.871 257.396 290.034 257.396Z" fill="white"/>
<path d="M360.116 257.396C362.278 257.396 364.032 255.643 364.032 253.48C364.032 251.317 362.278 249.564 360.116 249.564C357.953 249.564 356.2 251.317 356.2 253.48C356.2 255.643 357.953 257.396 360.116 257.396Z" fill="white"/>
<path d="M229.368 377.168C208.61 383.91 183.53 381.11 170.084 362.366C166.928 357.969 161.72 347.171 162.797 341.849C163.139 340.176 167.955 338.085 169.755 336.627C176.383 331.241 183.543 322.497 181.274 317.39C180.501 315.653 178.727 314.526 177.143 314.247C174.165 313.727 170.718 316.008 168.589 320.089C168.829 314.703 174.051 300.015 168.221 296.973C166.092 295.858 163.887 296.023 162.189 297.759L156.98 309.076C156.866 308.024 154.737 288.419 148.122 287.709C147.006 287.595 146.119 288.052 145.777 288.229C141.456 290.548 140.961 299.952 143.635 311.395C142.634 311.243 142.622 310.242 142.317 309.52C140.569 305.401 138.63 295.25 132.471 296.429C127.769 297.328 128.086 302.486 128.694 306.326C129.48 311.256 136.83 332.154 139.681 335.943C142.546 339.745 147.032 342.077 151.683 342.786C155.713 386.711 204.314 400.994 240.191 384.658C236.351 382.453 232.613 380.108 229.368 377.181V377.168Z" fill="#502E91"/>
<path d="M344.249 317.39C348.051 316.997 351.333 319.696 351.853 323.409C353.501 335.018 340.916 341.823 330.74 341.037C322.249 340.379 309.728 331.419 312.009 321.749C313.15 316.908 321.336 320.038 324.936 320.165C332.248 320.431 337.773 318.061 344.249 317.402V317.39Z" fill="#502E91"/>
<path d="M172.028 112.768C184.815 112.388 197.729 112.388 210.529 112.768C212.011 112.806 214.292 113.212 217.068 113.947C219.095 114.479 223.049 115.544 227.029 118.066C228.296 118.877 229.386 119.713 230.324 120.55C230.932 121.094 233.023 122.995 235.165 126.265C236.572 128.407 238.992 132.196 239.867 137.709C240.171 139.61 240.412 142.499 239.867 146.022C239.562 148.595 238.435 152.448 237.294 154.855C234.861 159.937 232.339 160.305 230.679 163.815C229.487 166.324 228.765 170.266 231.426 176.247C225.014 174.448 219.678 173.219 215.762 172.382C212.049 171.596 209.908 171.14 207.778 170.95C204.357 170.646 200.998 170.392 197.691 170.19C188.211 170.304 179.049 170.557 170.19 170.95C168.86 170.95 166.515 170.836 163.778 170.19C151.586 167.326 143.856 156.693 141.777 147.518C141.245 145.173 140.7 141.219 141.777 136.188C143.45 123.68 157.239 113.871 172.028 112.768Z" fill="#6EC5D6"/>
<path d="M211.301 146.124C215.081 146.124 218.145 143.06 218.145 139.28C218.145 135.501 215.081 132.437 211.301 132.437C207.522 132.437 204.458 135.501 204.458 139.28C204.458 143.06 207.522 146.124 211.301 146.124Z" fill="white"/>
<path d="M191.164 147.416C194.944 147.416 198.007 144.352 198.007 140.573C198.007 136.793 194.944 133.729 191.164 133.729C187.384 133.729 184.321 136.793 184.321 140.573C184.321 144.352 187.384 147.416 191.164 147.416Z" fill="white"/>
<path d="M171.014 149.14C174.794 149.14 177.858 146.076 177.858 142.296C177.858 138.517 174.794 135.453 171.014 135.453C167.235 135.453 164.171 138.517 164.171 142.296C164.171 146.076 167.235 149.14 171.014 149.14Z" fill="white"/>
</g>
<defs>
<linearGradient id="paint0_linear_559_864" x1="548.551" y1="298.914" x2="128.449" y2="407.917" gradientUnits="userSpaceOnUse">
<stop stop-color="#502E91"/>
<stop offset="0.855769" stop-color="white"/>
</linearGradient>
<radialGradient id="paint1_radial_559_864" cx="0" cy="0" r="1" gradientUnits="userSpaceOnUse" gradientTransform="translate(540.436 222.605) scale(29.68)">
<stop stop-color="#000057"/>
<stop offset="0.39" stop-color="#7474A4" stop-opacity="0.54"/>
<stop offset="0.79" stop-color="#D8D8E5" stop-opacity="0.15"/>
<stop offset="1" stop-color="white" stop-opacity="0"/>
</radialGradient>
<linearGradient id="paint2_linear_559_864" x1="515.766" y1="194.725" x2="549.466" y2="228.425" gradientUnits="userSpaceOnUse">
<stop stop-color="#2CB5E5"/>
<stop offset="0.65" stop-color="#8176AF"/>
<stop offset="1" stop-color="#9146FF"/>
</linearGradient>
<radialGradient id="paint3_radial_559_864" cx="0" cy="0" r="1" gradientUnits="userSpaceOnUse" gradientTransform="translate(165.928 427.906) rotate(30.9699) scale(29.68 29.68)">
<stop stop-color="#000057"/>
<stop offset="0.39" stop-color="#7474A4" stop-opacity="0.54"/>
<stop offset="0.79" stop-color="#D8D8E5" stop-opacity="0.15"/>
<stop offset="1" stop-color="white" stop-opacity="0"/>
</radialGradient>
<linearGradient id="paint4_linear_559_864" x1="159.596" y1="390.203" x2="171.151" y2="436.44" gradientUnits="userSpaceOnUse">
<stop stop-color="#00FB73"/>
<stop offset="1" stop-color="#00B25B"/>
</linearGradient>
<radialGradient id="paint5_radial_559_864" cx="0" cy="0" r="1" gradientUnits="userSpaceOnUse" gradientTransform="translate(455.741 469.552) rotate(18.5868) scale(29.68 29.68)">
<stop stop-color="#000057"/>
<stop offset="0.39" stop-color="#7474A4" stop-opacity="0.54"/>
<stop offset="0.79" stop-color="#D8D8E5" stop-opacity="0.15"/>
<stop offset="1" stop-color="white" stop-opacity="0"/>
</radialGradient>
<linearGradient id="paint6_linear_559_864" x1="441.709" y1="432.908" x2="462.91" y2="475.592" gradientUnits="userSpaceOnUse">
<stop stop-color="#1677F1"/>
<stop offset="0.18" stop-color="#176EE9"/>
<stop offset="0.46" stop-color="#1D55D3"/>
<stop offset="0.82" stop-color="#252EB0"/>
<stop offset="1" stop-color="#2B189C"/>
</linearGradient>
<clipPath id="clip0_559_864">
<rect width="61.33" height="64.54" fill="white" transform="translate(508.786 187.745)"/>
</clipPath>
<clipPath id="clip1_559_864">
<rect width="428.399" height="421.935" fill="white" transform="translate(78.9397 57.821)"/>
</clipPath>
<clipPath id="clip2_559_864">
<rect width="61.65" height="66.93" fill="white" transform="translate(437.318 424.068) rotate(18.5868)"/>
</clipPath>
</defs>
</svg>
