<?xml version="1.0" encoding="utf-8"?>
<!-- Generator: Adobe Illustrator 28.0.0, SVG Export Plug-In . SVG Version: 6.00 Build 0)  -->
<svg version="1.1" id="Layer_1" xmlns="http://www.w3.org/2000/svg" xmlns:xlink="http://www.w3.org/1999/xlink" x="0px" y="0px"
	 viewBox="0 0 1000 1000" style="enable-background:new 0 0 1000 1000;" xml:space="preserve">
<style type="text/css">
	.st0{fill:#802BE7;}
</style>
<path class="st0" d="M716.28,381.96c-21.53-0.69-42.33,4.9-60.41,16.18c-3.03-2.38-5.95-4.97-8.72-7.76
	c-2.76-2.78-5.34-5.72-7.69-8.77c11.4-18.01,17.13-38.76,16.6-60.29c-0.4-16.02-12.98-24.44-25.22-24.48s-24.88,8.29-25.39,24.3
	c-0.68,21.54,4.9,42.33,16.18,60.41c-2.38,3.03-4.97,5.95-7.76,8.71c-2.78,2.77-5.72,5.34-8.77,7.7
	c-18.01-11.4-38.76-17.14-60.29-16.6c-16.02,0.4-24.44,12.98-24.48,25.22c-0.04,12.23,8.29,24.88,24.3,25.39
	c21.53,0.69,42.33-4.9,60.41-16.18c3.03,2.37,5.95,4.97,8.72,7.75c2.76,2.79,5.34,5.72,7.69,8.77
	c-11.4,18.01-17.13,38.76-16.6,60.29c0.4,16.01,12.98,24.44,25.22,24.48c12.23,0.04,24.88-8.29,25.39-24.3
	c0.68-21.54-4.9-42.33-16.18-60.41c2.38-3.03,4.97-5.95,7.76-8.72c2.78-2.76,5.72-5.34,8.77-7.69c18.01,11.4,38.76,17.13,60.29,16.6
	c16.02-0.4,24.44-12.98,24.48-25.22C740.63,395.12,732.29,382.47,716.28,381.96z M545.1,417.34c-7.51-0.24-10.15-5.92-10.14-10.72
	c0.02-4.79,2.7-10.46,10.21-10.64c0.91-0.02,1.81-0.03,2.71-0.03c15.3,0.05,30.08,3.77,43.39,10.87
	C577.13,414.24,561.36,417.86,545.1,417.34z M620.08,321.6c0.24-7.51,5.92-10.15,10.72-10.14c4.79,0.02,10.46,2.7,10.64,10.21
	c0.4,16.26-3.32,32-10.84,46.1C623.18,353.63,619.57,337.86,620.08,321.6z M640.84,492.32c-0.24,7.51-5.92,10.15-10.72,10.14
	c-4.79-0.02-10.46-2.7-10.64-10.21c-0.4-16.26,3.32-32,10.84-46.1C637.74,460.29,641.36,476.06,640.84,492.32z M636.73,413.28
	c-2.21,2.2-4.32,4.48-6.32,6.83c-1.98-2.37-4.07-4.66-6.27-6.87c-2.2-2.21-4.48-4.32-6.83-6.32c2.37-1.98,4.66-4.07,6.88-6.27
	c2.21-2.2,4.32-4.48,6.32-6.83c1.98,2.37,4.07,4.66,6.27,6.87c2.2,2.21,4.48,4.32,6.83,6.32
	C641.24,408.99,638.94,411.08,636.73,413.28z M715.74,417.94c-16.25,0.41-32-3.32-46.1-10.84c14.14-7.42,29.92-11.03,46.18-10.51
	c7.51,0.24,10.15,5.92,10.14,10.72C725.94,412.09,723.25,417.76,715.74,417.94z M389.01,520.61c7.31,12.6,10.97,27.5,10.97,44.73
	v69.45H259.42v-41.11h98.62v-28.33c0-14.07-5.56-24.82-16.67-32.23c-11.11-7.41-25.28-11.11-42.5-11.11
	c-7.41,0-15.38,0.74-23.89,2.22c-1.11-6.67-1.67-12.32-1.67-16.95c0-8.7,1.8-14.86,5.42-18.47c3.61-3.61,9.31-5.79,17.09-6.53
	c6.29-0.37,10.93-0.56,13.89-0.56c18.33,0,34.31,3.34,47.92,10C371.23,498.38,381.69,508.01,389.01,520.61z M477.15,490.42
	c5.04,0,11,0.61,17.86,1.82V637.5c0,21.59-4.84,37.93-14.53,49.02s-23.5,16.65-41.46,16.65c-11.91,0-24.62-2.22-38.13-6.66
	l8.77-39.34c9.28,2.22,16.54,3.33,21.79,3.33c6.25,0,10.79-1.72,13.62-5.15c2.82-3.43,4.24-9.38,4.24-17.85V519.48
	c0-9.88,2.12-17.2,6.36-21.94C459.9,492.8,467.06,490.42,477.15,490.42z M490.46,421.73c5.04,5.04,7.56,11.1,7.56,18.16
	c0,7.06-2.53,13.12-7.56,18.16c-5.05,5.04-11.1,7.56-18.16,7.56c-7.06,0-13.12-2.52-18.16-7.56c-5.05-5.04-7.56-11.09-7.56-18.16
	c0-7.06,2.52-13.11,7.56-18.16c5.04-5.04,11.09-7.57,18.16-7.57C479.37,414.16,485.42,416.69,490.46,421.73z"/>
</svg>
